<svg id="visual" viewBox="0 0 3840 2160" width="3840" height="2160" xmlns="http://www.w3.org/2000/svg" xmlns:xlink="http://www.w3.org/1999/xlink" version="1.1">
    <rect x="0" y="0" width="3840" height="2160" fill="#443c3c"></rect>
    <path d="M0 1455L91.5 1433.2C183 1411.3 366 1367.7 548.8 1387.5C731.7 1407.3 914.3 1490.7 1097.2 1517.7C1280 1544.7 1463 1515.3 1645.8 1503.2C1828.7 1491 2011.3 1496 2194.2 1469.8C2377 1443.7 2560 1386.3 2742.8 1350.3C2925.7 1314.3 3108.3 1299.7 3291.2 1323.3C3474 1347 3657 1409 3748.5 1440L3840 1471L3840 2161L3748.5 2161C3657 2161 3474 2161 3291.2 2161C3108.3 2161 2925.7 2161 2742.8 2161C2560 2161 2377 2161 2194.2 2161C2011.3 2161 1828.7 2161 1645.8 2161C1463 2161 1280 2161 1097.2 2161C914.3 2161 731.7 2161 548.8 2161C366 2161 183 2161 91.5 2161L0 2161Z" fill="#fad269"></path>
    <path d="M0 1549L91.5 1539.8C183 1530.7 366 1512.3 548.8 1520.8C731.7 1529.3 914.3 1564.7 1097.2 1584.8C1280 1605 1463 1610 1645.8 1625.7C1828.7 1641.3 2011.3 1667.7 2194.2 1637.7C2377 1607.7 2560 1521.3 2742.8 1491.5C2925.7 1461.7 3108.3 1488.3 3291.2 1493.3C3474 1498.3 3657 1481.7 3748.5 1473.3L3840 1465L3840 2161L3748.5 2161C3657 2161 3474 2161 3291.2 2161C3108.3 2161 2925.7 2161 2742.8 2161C2560 2161 2377 2161 2194.2 2161C2011.3 2161 1828.7 2161 1645.8 2161C1463 2161 1280 2161 1097.2 2161C914.3 2161 731.7 2161 548.8 2161C366 2161 183 2161 91.5 2161L0 2161Z" fill="#ffb168"></path>
    <path d="M0 1842L91.5 1804.2C183 1766.3 366 1690.7 548.8 1671.7C731.7 1652.7 914.3 1690.3 1097.2 1697.8C1280 1705.3 1463 1682.7 1645.8 1672C1828.7 1661.3 2011.3 1662.7 2194.2 1652.8C2377 1643 2560 1622 2742.8 1647.8C2925.7 1673.7 3108.3 1746.3 3291.2 1773.5C3474 1800.7 3657 1782.3 3748.5 1773.2L3840 1764L3840 2161L3748.5 2161C3657 2161 3474 2161 3291.2 2161C3108.3 2161 2925.7 2161 2742.8 2161C2560 2161 2377 2161 2194.2 2161C2011.3 2161 1828.7 2161 1645.8 2161C1463 2161 1280 2161 1097.2 2161C914.3 2161 731.7 2161 548.8 2161C366 2161 183 2161 91.5 2161L0 2161Z" fill="#ff9272"></path>
    <path d="M0 1752L91.5 1783.7C183 1815.3 366 1878.7 548.8 1894.8C731.7 1911 914.3 1880 1097.2 1867.5C1280 1855 1463 1861 1645.8 1854.8C1828.7 1848.7 2011.3 1830.3 2194.2 1838.3C2377 1846.3 2560 1880.7 2742.8 1896.7C2925.7 1912.7 3108.3 1910.3 3291.2 1889.5C3474 1868.7 3657 1829.3 3748.5 1809.7L3840 1790L3840 2161L3748.5 2161C3657 2161 3474 2161 3291.2 2161C3108.3 2161 2925.7 2161 2742.8 2161C2560 2161 2377 2161 2194.2 2161C2011.3 2161 1828.7 2161 1645.8 2161C1463 2161 1280 2161 1097.2 2161C914.3 2161 731.7 2161 548.8 2161C366 2161 183 2161 91.5 2161L0 2161Z" fill="#f77884"></path>
    <path d="M0 1933L91.5 1936.2C183 1939.3 366 1945.7 548.8 1957.2C731.7 1968.7 914.3 1985.3 1097.2 1979.8C1280 1974.3 1463 1946.7 1645.8 1951.8C1828.7 1957 2011.3 1995 2194.2 1998C2377 2001 2560 1969 2742.8 1953.8C2925.7 1938.7 3108.3 1940.3 3291.2 1950.8C3474 1961.3 3657 1980.7 3748.5 1990.3L3840 2000L3840 2161L3748.5 2161C3657 2161 3474 2161 3291.2 2161C3108.3 2161 2925.7 2161 2742.8 2161C2560 2161 2377 2161 2194.2 2161C2011.3 2161 1828.7 2161 1645.8 2161C1463 2161 1280 2161 1097.2 2161C914.3 2161 731.7 2161 548.8 2161C366 2161 183 2161 91.5 2161L0 2161Z" fill="#e1669a"></path>
</svg>